# xmcd
#
# Track frame offsets: 
#        150
#        10314
#        23993
#        35354
#        47564
#        61743
#        73489
#        83950
#        96775
#        107957
#        121025
#        133898
#        147391
#        162222
#        172369
#        184623
#        195540
#        211250
#        225257
#        237579
#
# Disc length: 3328 seconds
#
# Revision: 0
# Processed by: cddbd v1.5.2PL0 Copyright (c) Steve Scherf et al.
# Submitted via: ExactAudioCopy v1.0b4
#
DISCID=1c0cfe14
DTITLE=201 Blues Hits - CD 6
DYEAR=2013
DGENRE=Blues
TTITLE0=Dale Hawkins - Susie Q
TTITLE1=Guitar Slim - The Things I Used To Do
TTITLE2=Sonny Parker - Money Ain't Everything
TTITLE3=Muddy Waters - Trouble No More
TTITLE4=Charley Patton - Shake It And Break It
TTITLE5=John Lee Hooker - Pouring Down Rain
TTITLE6=Smiley Lewis - One Night
TTITLE7=B.B. King - Please Love Me
TTITLE8=John Lee Hooker - Money (That's What I Want)
TTITLE9=Bobo Thomas - Catfish Blues
TTITLE10=Bobby Charles - See You Later Alligator
TTITLE11=Jimmy Nelson - Free And Easy Mind
TTITLE12=Charley Patton - Moon Going Down
TTITLE13=Howlin Wolf - Work For Your Money
TTITLE14=B.B. King - Don't Look Now But You Got The Blues
TTITLE15=Billy Gayles - I'm Tore Up
TTITLE16=John Lee Hooker - Landing Blues
TTITLE17=Robert Lockwood Jr. - Little Boy Sue
TTITLE18=Memphis Slim - Walking Alone
TTITLE19=Jimmy Reed - Honest I Do
EXTD=
EXTT0=
EXTT1=
EXTT2=
EXTT3=
EXTT4=
EXTT5=
EXTT6=
EXTT7=
EXTT8=
EXTT9=
EXTT10=
EXTT11=
EXTT12=
EXTT13=
EXTT14=
EXTT15=
EXTT16=
EXTT17=
EXTT18=
EXTT19=
PLAYORDER=
